# xmcd
#
# Track frame offsets:
#	150
#	18168
#	32418
#	51110
#	67599
#	83233
#	106325
#	124929
#	143523
#	157990
#	171338
#	189413
#	207653
#	224054
#	240028
#	253654
#	280282
#	294550
#	312835
#	331663
#
# Disc length: 4694 seconds
#
# Revision: 2
# Processed by: cddbd v1.5.1PL2 Copyright (c) Steve Scherf et al.
# Submitted via: audiograbber 1.83.01
#
DISCID=14125414
DTITLE=Various Artist - Long Way To The Top [Disc 2]
DYEAR=2001
DGENRE=Pop
TTITLE0=Healing Force - Golden Miles
TTITLE1=Chain - 32/20 Blues
TTITLE2=Wendy Saddington - Looking Through A Window
TTITLE3=Wild Cherries - GOD ("Guitar Overdose")
TTITLE4=Trevor Lucas - Girls On The Avenue
TTITLE5=Sherbet - You've Got The Gun
TTITLE6=John Paul Young - Standing In The Rain
TTITLE7=Renee Geyer - Heading In The Right Direction
TTITLE8=The Saints - Know Your Product
TTITLE9=The Divinyls - Boys In Town
TTITLE10=Rose Tattoo - Rock 'n' Roll Outlaw
TTITLE11=Reels - Quasimodo's Dream
TTITLE12=The Triffids - Beautiful Waste
TTITLE13=INXS - What You Need
TTITLE14=Paul Kelly and The Coloured Girls - Bicentennial
TTITLE15=Nick Cave and The Bad Seeds - Do You Love Me?
TTITLE16=Sunrize Band - Lembana Mani Mani
TTITLE17=The Cruel Sea - This Is Not The Way Home
TTITLE18=silverchair - Freak
TTITLE19=Itch-e and Scratch-e - Sweetness and Light
EXTD=
EXTT0=
EXTT1=
EXTT2=
EXTT3=
EXTT4=
EXTT5=
EXTT6=
EXTT7=
EXTT8=
EXTT9=
EXTT10=
EXTT11=
EXTT12=
EXTT13=
EXTT14=
EXTT15=
EXTT16=
EXTT17=
EXTT18=
EXTT19=
PLAYORDER=
